<?xml version="1.0" encoding="utf-8"?>
<!-- Generator: Adobe Illustrator 21.0.0, SVG Export Plug-In . SVG Version: 6.00 Build 0)  -->
<svg version="1.1" id="Ebene_1" xmlns="http://www.w3.org/2000/svg" xmlns:xlink="http://www.w3.org/1999/xlink" x="0px" y="0px"
	 viewBox="0 0 512 512" style="enable-background:new 0 0 512 512;" xml:space="preserve">
<style type="text/css">
	.st0{fill:#BD9391;}
	.st1{fill:#FFFFFF;}
</style>
<circle class="st0" cx="256.4" cy="256.9" r="244.9"/>
<path id="briefcase-5-icon" class="st1" d="M393.6,195.3v21c0,4.2-2.1,8.2-5.5,10.8c-45.9,32.4-215.7,31.7-263.2-1.4
	c-3.5-2.4-5.5-6.5-5.5-10.8v-19.5H393.6L393.6,195.3z M416.9,171.9H95.9v47.8c0,71.3,321.1,73.5,321.1,1.6V171.9z M387.3,270.9v81.5
	H125.6v-82.8c-9.2-3.7-17-7.9-23.4-12.5v118.8h308.5V258.7C404.3,263.2,396.5,267.3,387.3,270.9z M214.2,143c0-3,2.4-5.2,5.2-5.2
	h73.8c3,0,5.2,2.4,5.2,5.2v13.3h23.4v-23.8c0-9.2-7.4-16.6-16.6-16.6h-98c-9.2,0-16.6,7.4-16.6,16.6v23.8h23.4V143H214.2z
	 M274.1,289.5h-35.4v14c0,9.8,7.9,17.7,17.7,17.7c9.8,0,17.7-7.9,17.7-17.7V289.5L274.1,289.5z"/>
</svg>
