<?xml version="1.0" encoding="utf-8"?>
<!-- Generator: Adobe Illustrator 21.0.0, SVG Export Plug-In . SVG Version: 6.00 Build 0)  -->
<svg version="1.1" id="Ebene_1" xmlns="http://www.w3.org/2000/svg" xmlns:xlink="http://www.w3.org/1999/xlink" x="0px" y="0px"
	 viewBox="0 0 512 512" style="enable-background:new 0 0 512 512;" xml:space="preserve">
<style type="text/css">
	.st0{fill:#BD9391;}
	.st1{fill:#FFFFFF;}
</style>
<circle class="st0" cx="256.2" cy="256.9" r="244.9"/>
<path id="certificate-12" class="st1" d="M302.9,313.7c-3.2,9.6-3.2,7.7,0,17.4c0.3,1,0.4,2.1,0.4,3.1c0,3.1-1.5,6-4.1,7.8
	c-8.5,5.9-7.4,4.4-10.6,14c-1.3,4-5.2,6.8-9.6,6.8l0,0c-10.4,0-8.7-0.6-17.2,5.3c-1.8,1.2-3.8,1.9-5.9,1.9s-4.1-0.6-5.9-1.9
	c-8.5-5.9-6.6-5.4-17.2-5.3l0,0c-4.4,0-8.2-2.6-9.6-6.8c-3.2-9.6-2.1-8.1-10.6-14c-2.6-1.9-4.1-4.9-4.1-7.8c0-1,0.1-2.1,0.4-3.1
	c3.2-9.6,3.2-7.7,0-17.4c-0.3-1-0.4-2.1-0.4-3.1c0-3.1,1.5-6,4.1-7.8c8.5-5.9,7.4-4.4,10.6-14c1.3-4,5.2-6.8,9.6-6.8l0,0
	c10.4,0,8.7,0.6,17.2-5.3c1.8-1.2,3.8-1.9,5.9-1.9s4.1,0.6,5.9,1.9c8.5,5.9,6.6,5.4,17.2,5.3l0,0c4.4,0,8.2,2.6,9.6,6.8
	c3.2,9.6,2.1,8.1,10.6,14c2.6,1.9,4.1,4.9,4.1,7.8C303.5,311.7,303.4,312.7,302.9,313.7z M279.7,322.3c0-13.1-10.6-23.7-23.7-23.7
	c-13.1,0-23.7,10.6-23.7,23.7c0,13.1,10.6,23.7,23.7,23.7C269.1,346.1,279.7,335.4,279.7,322.3z M238.2,376.1
	c-5.2,0-9.3-0.4-12.7-1.5c-2.1,20.7-9.3,36.3-23.7,51.5c5.7,0.7,13.2-0.6,19.1-3.8c2.2,4.3,4.4,9.7,5.2,15.3
	c13.7-15.6,22.1-34.3,25.3-54.7C245.1,381.6,243.2,379.5,238.2,376.1z M274,376.1c-5,3.4-7.1,5.6-13.4,6.8
	c3.2,20.5,11.6,39.1,25.3,54.7c0.7-5.6,3.1-10.9,5.2-15.3c6,3.1,13.4,4.6,19.1,3.8c-14.4-15-21.5-30.8-23.5-51.5
	C283.2,375.6,279.1,376.1,274,376.1z M120.5,112.1v284.7h69.9c4.6-7.2,7.2-15,8.1-25l0.1-2.2h-51.1V139.4h216.9v230.4h-51.1l0.1,2.1
	c1,10,3.5,17.8,8.1,25h69.9V112.1H120.5z M337.4,180H174.6v13.5h162.7V180z M337.4,207.1H174.6v13.5h162.7V207.1z M337.4,234.3
	H174.6v13.5h162.7V234.3z"/>
</svg>
