<?xml version="1.0" encoding="utf-8"?>
<!-- Generator: Adobe Illustrator 21.0.0, SVG Export Plug-In . SVG Version: 6.00 Build 0)  -->
<svg version="1.1" id="Livello_1" xmlns="http://www.w3.org/2000/svg" xmlns:xlink="http://www.w3.org/1999/xlink" x="0px" y="0px"
	 viewBox="0 0 1366 768" style="enable-background:new 0 0 1366 768;" xml:space="preserve">
<style type="text/css">
	.st0{fill:#CCCCCC;}
	.st1{fill:#B2FBE4;}
	.st2{fill:#FFCE61;}
	.st3{fill:#FF87A5;}
	.st4{fill:#999999;}
	.st5{fill:#FFFEE1;}
	.st6{font-family:'MyriadPro-Regular';}
	.st7{font-size:21.6356px;}
	.st8{font-size:21.4092px;}
	.st9{font-size:18.9305px;}
	.st10{font-size:17.7873px;}
	.st11{font-size:18.7678px;}
	.st12{font-size:19.9983px;}
</style>
<path class="st0" d="M687.6,74.9c-39.8,0-76,7.4-112.6,22.9L687.6,363V74.9z"/>
<path class="st1" d="M558,114.8C443.6,163.3,376.4,271,382.9,395.1L670.6,380L558,114.8z"/>
<path class="st2" d="M363.5,416.9c2.6,49.6,15.2,90.8,40.8,133.3l247-148.4L363.5,416.9z"/>
<path class="st3" d="M430.9,552.7c76.8,127.8,239.3,175.9,373.3,110.6l-126.3-259L430.9,552.7z"/>
<path class="st4" d="M823.6,660.8c44.6-21.8,77.6-49.4,106.8-89.6L697.3,401.9L823.6,660.8z"/>
<path class="st5" d="M714.3,91.9V380l233.1,169.4c38-52.3,55-104.8,55-169.4C1002.4,220.9,873.4,91.9,714.3,91.9z"/>
<g>
	<g>
	</g>
	<g>
	</g>
	<g>
	</g>
	<g>
	</g>
	<g>
	</g>
	<g>
	</g>
</g>
<g>
	<g>
	</g>
	<g>
	</g>
	<g>
	</g>
	<g>
	</g>
	<g>
	</g>
	<g>
	</g>
</g>
<text transform="matrix(1 0 0 1 930.8789 279.9951)"><tspan x="0" y="0" class="st6 st7">45 % coffee </tspan><tspan x="0" y="26" class="st6 st7">drinking </tspan></text>
<text transform="matrix(1 0 0 1 516.4194 648.7402)"><tspan x="0" y="0" class="st6 st8">30% photoshopping</tspan><tspan x="0" y="25.7" class="st6 st8">things</tspan></text>
<text transform="matrix(1 0 0 1 382.314 236.4688)"><tspan x="0" y="0" class="st6 st9">25% creating</tspan><tspan x="0" y="22.7" class="st6 st9">animations</tspan></text>
<text transform="matrix(1 0 0 1 382.8228 463.668)" class="st6 st10">10% sleeping</text>
<text transform="matrix(1 0 0 1 816.854 566.4287)"><tspan x="0" y="0" class="st6 st11">10% petting</tspan><tspan x="0" y="22.5" class="st6 st11">cats</tspan></text>
<text transform="matrix(1 0 0 1 606.5737 74.7383)"><tspan x="0" y="0" class="st6 st12">8% being</tspan><tspan x="0" y="24" class="st6 st12">good at</tspan><tspan x="0" y="48" class="st6 st12">maths</tspan></text>
</svg>
